[Header]
FileType HTR
DataType HTRS
FileVersion 1
NumSegments 22
NumFrames 8
DataFrameRate 24
EulerRotationOrder ZYX
CalibrationUnits mm
RotationUnits Degrees
GlobalAxisofGravity Y
BoneLengthAxis Y
ScaleFactor 1.0
[SegmentNames&Hierarchy]
reference	GLOBAL
Hips	reference
Spine	Hips
Spine1	Spine
Neck	Spine1
Head	Neck
LeftShoulder	Spine1
LeftArm	LeftShoulder
LeftForeArm	LeftArm
LeftHand	LeftForeArm
RightShoulder	Spine1
RightArm	RightShoulder
RightForeArm	RightArm
RightHand	RightForeArm
LeftUpLeg	Hips
LeftLeg	LeftUpLeg
LeftFoot	LeftLeg
LeftToeBase	LeftFoot
RightUpLeg	Hips
RightLeg	RightUpLeg
RightFoot	RightLeg
RightToeBase	RightFoot
[BasePosition]
reference	0	0	0	0	0	0	1
Hips	0	0	0	0	0	0	1
Spine	0	0	0	0	-0	90	1
Spine1	0	0	0	0	0	0	1
Neck	0	0	0	-7.352430803	-7.352430803	90	1
Head	0	0	0	0	-0	90	1
LeftShoulder	0	0	0	0	0	0	1
LeftArm	0	0	0	0	0	0	1
LeftForeArm	0	0	0	0	0	0	1
LeftHand	0	0	0	0	0	0	1
RightShoulder	0	0	0	0	-0	180	1
RightArm	0	0	0	0	-0	180	1
RightForeArm	0	0	0	0	-0	180	1
RightHand	0	0	0	0	-0	180	1
LeftUpLeg	0	0	0	0	-0	-90	1
LeftLeg	0	0	0	0	-0	-90	1
LeftFoot	0	0	0	66.57150701	-66.57150701	-90	1
LeftToeBase	0	0	0	0	-90	0	1
RightUpLeg	0	0	0	0	-0	-90	1
RightLeg	0	0	0	0	-0	-90	1
RightFoot	0	0	0	66.57150701	-66.57150701	-90	1
RightToeBase	0	0	0	0	-90	0	1
[reference]
55	0	0	0	0	-0	0	1.0
56	0	0	0	0	-0	0	1.0
57	0	0	0	0	-0	0	1.0
58	0	0	0	0	-0	0	1.0
59	0	0	0	0	-0	0	1.0
60	0	0	0	0	-0	0	1.0
61	0	0	0	0	-0	0	1.0
62	0	0	0	0	-0	0	1.0
[Hips]
55	1.436828494	8.882053375	1.22755003	37.60826111	-97.96026611	-17.46199036	1.0
56	1.3178339	8.891132355	1.22755003	37.23878098	-97.92061615	-19.10233688	1.0
57	1.261963606	8.895990372	1.22755003	35.04787064	-98.06536102	-17.6760788	1.0
58	1.243063927	8.895990372	1.22755003	33.67588806	-98.39665222	-16.19830894	1.0
59	1.229527712	8.895990372	1.22755003	32.61434555	-99.10713196	-16.85724449	1.0
60	1.217260003	8.895990372	1.22755003	29.76273155	-99.81765747	-15.44881725	1.0
61	1.217260003	8.895990372	1.22755003	27.29606628	-100.0920486	-14.1736145	1.0
62	1.217260003	8.895990372	1.22755003	24.95426941	-99.84768677	-13.3167572	1.0
[Spine]
55	0	0.7478299737	0	-12.06672478	0.1903702617	-88.84400177	1.0
56	0	0.7478299737	0	-13.27025986	-0.8213388324	-88.45925903	1.0
57	0	0.7478299737	0	-14.21790218	-1.607426405	-88.1703186	1.0
58	0	0.7478299737	0	-15.00853443	-1.945070744	-88.28915405	1.0
59	0	0.7478299737	0	-15.40036106	-1.552325845	-88.68600464	1.0
60	0	0.7478299737	0	-15.69699001	-0.7814893723	-89.07213593	1.0
61	0	0.7478299737	0	-15.6580267	-0.3654642105	-89.37509918	1.0
62	0	0.7478299737	0	-15.19384384	-0.4251698554	-89.48059082	1.0
[Spine1]
55	0	2.049309969	0	3.870095015	0.08241962641	-1.922672391	1.0
56	0	2.049309969	0	5.758941174	-0.2203038186	-2.138208151	1.0
57	0	2.049309969	0	5.936207294	-0.5057272911	-2.049305677	1.0
58	0	2.049309969	0	7.323224068	-0.5977029204	-1.997338772	1.0
59	0	2.049309969	0	9.298750877	-0.3652222753	-2.61171937	1.0
60	0	2.049309969	0	9.417009354	-0.07849606872	-2.819470406	1.0
61	0	2.049309969	0	8.605621338	0.05236277357	-2.690528631	1.0
62	0	2.049309969	0	8.415945053	0.02387757972	-2.483223915	1.0
[Neck]
55	0	2.231709957	0	-4.797755241	9.140995979	-86.80422974	1.0
56	0	2.231709957	0	-2.072626829	8.917550087	-87.79734039	1.0
57	0	2.231709957	0	0.08182928711	8.829648972	-88.59172821	1.0
58	0	2.231709957	0	-2.049288273	8.815369606	-88.86038208	1.0
59	0	2.231709957	0	-2.063382387	8.247131348	-88.60587311	1.0
60	0	2.231709957	0	0.4646195769	7.494660378	-88.30478668	1.0
61	0	2.231709957	0	2.732065916	6.804663658	-87.70844269	1.0
62	0	2.231709957	0	3.768750191	5.928919792	-87.90276337	1.0
[Head]
55	0	1.413589954	0.1823999882	-13.06504059	1.97765696	-97.0881958	1.0
56	0	1.413589954	0.1823999882	-14.47569942	1.68417871	-97.27302551	1.0
57	0	1.413589954	0.1823999882	-14.76565361	1.563642025	-97.61711884	1.0
58	0	1.413589954	0.1823999882	-13.3066988	1.614063263	-97.4450531	1.0
59	0	1.413589954	0.1823999882	-12.78410053	1.081749678	-96.93521118	1.0
60	0	1.413589954	0.1823999882	-12.00373554	0.4069487453	-96.30564117	1.0
61	0	1.413589954	0.1823999882	-11.89331341	-0.1837401539	-96.69845581	1.0
62	0	1.413589954	0.1823999882	-13.19008827	0.05303294212	-96.44491577	1.0
[LeftShoulder]
55	0.3649300039	1.825889945	-0.04271000251	-9.447246552	-10.99037647	1.464138031	1.0
56	0.3649300039	1.825889945	-0.04271000251	-7.052200317	-10.46604347	2.430250645	1.0
57	0.3649300039	1.825889945	-0.04271000251	-6.291266918	-9.530241013	3.728623629	1.0
58	0.3649300039	1.825889945	-0.04271000251	-7.04913187	-7.823296547	3.270638704	1.0
59	0.3649300039	1.825889945	-0.04271000251	-7.351909161	-7.735072136	3.751252651	1.0
60	0.3649300039	1.825889945	-0.04271000251	-7.7784338	-8.520031929	3.626159191	1.0
61	0.3649300039	1.825889945	-0.04271000251	-7.942124844	-8.83280468	3.124860764	1.0
62	0.3649300039	1.825889945	-0.04271000251	-7.868212223	-9.073180199	2.422204494	1.0
[LeftArm]
55	1.24003005	0	0	27.80005455	5.661459446	-78.4850769	1.0
56	1.24003005	0	0	17.01974869	9.121897697	-77.902771	1.0
57	1.24003005	0	0	11.81202221	13.32053947	-77.90377808	1.0
58	1.24003005	0	0	11.75621223	14.86371231	-76.80776978	1.0
59	1.24003005	0	0	11.35262489	14.06734085	-77.33720398	1.0
60	1.24003005	0	0	14.536623	13.65762138	-77.92824554	1.0
61	1.24003005	0	0	17.99445724	12.8156004	-77.53527069	1.0
62	1.24003005	0	0	21.06113625	11.64708042	-76.94564819	1.0
[LeftForeArm]
55	2.847419977	0	0	-9.390429497	-6.891426086	-7.536867619	1.0
56	2.847419977	0	0	-5.156561852	-9.417901039	-10.42441082	1.0
57	2.847419977	0	0	-3.995230913	-11.96203995	-12.75780106	1.0
58	2.847419977	0	0	-4.615754128	-12.67834473	-12.63648224	1.0
59	2.847419977	0	0	-5.427553654	-10.1457386	-11.20366383	1.0
60	2.847419977	0	0	-7.67877388	-7.860881805	-9.224364281	1.0
61	2.847419977	0	0	-8.333918571	-7.076877594	-9.087038994	1.0
62	2.847419977	0	0	-8.03187561	-8.694153786	-8.488054276	1.0
[LeftHand]
55	2.258270025	0	0	-9.989067078	1.837385893	-8.920701027	1.0
56	2.258270025	0	0	-5.964388371	-0.8991988897	-6.948179722	1.0
57	2.258270025	0	0	-5.110156059	-4.96561861	-5.255783081	1.0
58	2.258270025	0	0	-5.875039101	-6.053163528	-2.86572814	1.0
59	2.258270025	0	0	-6.363279343	-4.914648056	-1.473392725	1.0
60	2.258270025	0	0	-8.309761047	-2.629343987	-0.2263223827	1.0
61	2.258270025	0	0	-8.880743027	-1.770607948	-1.116374016	1.0
62	2.258270025	0	0	-8.594597816	-2.849761248	-3.402817249	1.0
[RightShoulder]
55	-0.3646599948	1.825889945	-0.04271000251	-6.963639259	8.208427429	180.0178528	1.0
56	-0.3646599948	1.825889945	-0.04271000251	-5.01133585	7.414839745	179.3786469	1.0
57	-0.3646599948	1.825889945	-0.04271000251	-4.250179291	6.465317249	178.575119	1.0
58	-0.3646599948	1.825889945	-0.04271000251	-5.769478798	5.029139519	179.0255737	1.0
59	-0.3646599948	1.825889945	-0.04271000251	-6.120105743	5.553991795	178.7620697	1.0
60	-0.3646599948	1.825889945	-0.04271000251	-6.244467735	6.71528244	178.6048431	1.0
61	-0.3646599948	1.825889945	-0.04271000251	-6.304193974	6.963519573	178.851593	1.0
62	-0.3646599948	1.825889945	-0.04271000251	-6.15720892	6.978042603	179.3358154	1.0
[RightArm]
55	-1.24003005	0	0	30.85983658	-6.933790684	-103.0428772	1.0
56	-1.24003005	0	0	23.40480614	-9.76769352	-103.9169617	1.0
57	-1.24003005	0	0	17.98231125	-11.88352871	-104.8167343	1.0
58	-1.24003005	0	0	15.80956841	-12.1171875	-106.6277466	1.0
59	-1.24003005	0	0	18.62833023	-11.15217018	-105.0343246	1.0
60	-1.24003005	0	0	22.48874855	-11.05227852	-103.6037369	1.0
61	-1.24003005	0	0	26.56731033	-10.44933987	-103.6945877	1.0
62	-1.24003005	0	0	30.44740295	-9.010117531	-103.7779694	1.0
[RightForeArm]
55	-2.847419977	0	0	5.569616795	6.773634911	183.9807129	1.0
56	-2.847419977	0	0	4.666640759	10.60070038	183.3853455	1.0
57	-2.847419977	0	0	5.115473747	13.04770756	183.8993225	1.0
58	-2.847419977	0	0	6.323625088	12.1461525	185.4089966	1.0
59	-2.847419977	0	0	4.491043091	9.462673187	183.3669128	1.0
60	-2.847419977	0	0	2.98148942	7.82985878	182.3483276	1.0
61	-2.847419977	0	0	3.944807291	8.01818943	183.0955353	1.0
62	-2.847419977	0	0	3.263076782	9.176952362	182.2333984	1.0
[RightHand]
55	-2.258270025	0	0	5.390828133	3.473563671	181.7444458	1.0
56	-2.258270025	0	0	4.375640869	4.365847588	180.5637207	1.0
57	-2.258270025	0	0	4.757919312	4.680107594	182.1783142	1.0
58	-2.258270025	0	0	5.823370457	4.702632904	181.9208527	1.0
59	-2.258270025	0	0	4.202964783	3.360743046	179.6829529	1.0
60	-2.258270025	0	0	2.783277988	1.601400256	177.2140198	1.0
61	-2.258270025	0	0	3.688750744	2.21935606	178.0048676	1.0
62	-2.258270025	0	0	3.074873209	3.97547245	179.7612457	1.0
[LeftUpLeg]
55	0.9119900465	0	0	-17.42568779	-6.219596863	94.6162262	1.0
56	0.9119900465	0	0	-9.982322693	-6.57862854	92.60605621	1.0
57	0.9119900465	0	0	-8.262682915	-7.462586403	92.51457214	1.0
58	0.9119900465	0	0	-10.40490532	-6.250458241	93.0896759	1.0
59	0.9119900465	0	0	-8.792019844	-2.688247442	92.56826019	1.0
60	0.9119900465	0	0	-6.457346439	-0.204598695	91.65725708	1.0
61	0.9119900465	0	0	-4.73663044	-3.105407	92.06569672	1.0
62	0.9119900465	0	0	-3.242265701	-6.009438992	92.5736618	1.0
[LeftLeg]
55	0	-4.371409893	0	6.050380707	4.869297504	88.16105652	1.0
56	0	-4.371409893	0	-3.077170372	5.313818932	89.84541321	1.0
57	0	-4.371409893	0	-4.001561642	5.027213097	90.716362	1.0
58	0	-4.371409893	0	-0.2736721039	0.8311014175	89.65013885	1.0
59	0	-4.371409893	0	0.3726129532	-2.201361656	88.5459137	1.0
60	0	-4.371409893	0	-0.2626986504	-2.304162502	89.51660919	1.0
61	0	-4.371409893	0	-0.6911908388	0.1321263909	89.43625641	1.0
62	0	-4.371409893	0	-0.5292976499	0.9361929297	88.9810791	1.0
[LeftFoot]
55	0	-3.918009996	0	-77.57176971	103.3370361	-41.16225433	1.0
56	0	-3.918009996	0	-71.89031982	103.9636078	-39.56777573	1.0
57	0	-3.918009996	0	-74.91930389	104.1321335	-39.55679321	1.0
58	0	-3.918009996	0	-71.92260742	106.6425323	-31.4832058	1.0
59	0	-3.918009996	0	-69.61859131	107.0448303	-30.6198082	1.0
60	0	-3.918009996	0	-70.31589508	105.3497314	-33.0826683	1.0
61	0	-3.918009996	0	-68.15198517	105.7679825	-30.52561951	1.0
62	0	-3.918009996	0	-65.19766998	107.1604462	-26.22584915	1.0
[LeftToeBase]
55	0	-0.5927900076	1.367989898	0	0	0	1.0
56	0	-0.5927900076	1.367989898	0	0	0	1.0
57	0	-0.5927900076	1.367989898	0	0	0	1.0
58	0	-0.5927900076	1.367989898	0	0	0	1.0
59	0	-0.5927900076	1.367989898	0	0	0	1.0
60	0	-0.5927900076	1.367989898	0	0	0	1.0
61	0	-0.5927900076	1.367989898	0	0	0	1.0
62	0	-0.5927900076	1.367989898	0	0	0	1.0
[RightUpLeg]
55	-0.9119900465	0	0	-15.07261372	-10.79784489	89.12161255	1.0
56	-0.9119900465	0	0	-7.582132816	-8.647879601	86.54455566	1.0
57	-0.9119900465	0	0	-5.558655739	-8.29464817	86.34300232	1.0
58	-0.9119900465	0	0	-7.246924877	-9.954889297	86.95418549	1.0
59	-0.9119900465	0	0	-5.733743191	-13.0102129	87.14616394	1.0
60	-0.9119900465	0	0	-3.666579008	-12.17063808	86.37833405	1.0
61	-0.9119900465	0	0	-2.278111219	-10.81673145	86.0144577	1.0
62	-0.9119900465	0	0	-0.7147727013	-10.72714043	86.20649719	1.0
[RightLeg]
55	0	-4.371409893	0	4.061971188	-4.130345345	87.65840912	1.0
56	0	-4.371409893	0	-4.571079254	-6.221398354	91.26358795	1.0
57	0	-4.371409893	0	-6.323838234	-6.757581234	91.43426514	1.0
58	0	-4.371409893	0	-3.746315479	-4.154242992	90.85106659	1.0
59	0	-4.371409893	0	-3.678853989	-3.394323826	90.21081543	1.0
60	0	-4.371409893	0	-4.153577805	-3.157090425	90.66658783	1.0
61	0	-4.371409893	0	-3.975167513	-3.63483882	90.80241394	1.0
62	0	-4.371409893	0	-3.719193935	-3.610239029	90.32924652	1.0
[RightFoot]
55	0	-3.918009996	0	45.60556793	60.17646408	80.20083618	1.0
56	0	-3.918009996	0	46.43480682	60.49253845	76.7093811	1.0
57	0	-3.918009996	0	47.43387604	60.62059021	80.06903076	1.0
58	0	-3.918009996	0	42.02281189	61.05331421	78.04298401	1.0
59	0	-3.918009996	0	48.41832352	61.82255554	83.34054565	1.0
60	0	-3.918009996	0	49.25285339	61.38637924	82.97920227	1.0
61	0	-3.918009996	0	48.44086456	61.10943222	82.43759155	1.0
62	0	-3.918009996	0	47.43165588	61.01406479	81.98222351	1.0
[RightToeBase]
55	0	-0.5927900076	1.367989898	0	0	0	1.0
56	0	-0.5927900076	1.367989898	0	0	0	1.0
57	0	-0.5927900076	1.367989898	0	0	0	1.0
58	0	-0.5927900076	1.367989898	0	0	0	1.0
59	0	-0.5927900076	1.367989898	0	0	0	1.0
60	0	-0.5927900076	1.367989898	0	0	0	1.0
61	0	-0.5927900076	1.367989898	0	0	0	1.0
62	0	-0.5927900076	1.367989898	0	0	0	1.0
[EndOfFile]
